<svg xmlns="http://www.w3.org/2000/svg" width="1024" height="1024" viewBox="0 0 1024 1024">
  <rect width="1024" height="1024" rx="192" fill="#241F3D"/>
  <circle cx="512" cy="512" r="342" fill="none" stroke="#E6AA5A" stroke-width="18" opacity="0.28"/>
  <path d="M512 150 583 341 752 272 683 441 874 512 683 583 752 752 583 683 512 874 441 683 272 752 341 583 150 512 341 441 272 272 441 341Z" fill="#E6AA5A"/>
  <path d="M512 249 563 410 675 349 614 461 775 512 614 563 675 675 563 614 512 775 461 614 349 675 410 563 249 512 410 461 349 349 461 410Z" fill="#241F3D"/>
  <path d="M512 296 548 432 644 380 592 476 728 512 592 548 644 644 548 592 512 728 476 592 380 644 432 548 296 512 432 476 380 380 476 432Z" fill="#B5502A"/>
  <circle cx="512" cy="512" r="64" fill="#241F3D" stroke="#E6AA5A" stroke-width="16"/>
</svg>
